# xmcd
#
# Track frame offsets:
#	150
#	8353
#	24435
#	33732
#	43074
#	57921
#	67975
#	78253
#	93397
#	107075
#	120674
#	134512
#	143389
#	154237
#	178048
#	198667
#	217378
#
# Disc length: 3259 seconds
#
# Revision: 1
# Processed by: cddbd v1.5.1PL0 Copyright (c) Steve Scherf et al.
# Submitted via: CDex 1.50Beta5
#
DISCID=eb0cb911
DTITLE=light - LIGHT Song of The Best Collection
DYEAR=1900
DGENRE=Soundtrack
TTITLE0=White Angel
TTITLE1=僕と、僕らの夏
TTITLE2=虹色の軌跡
TTITLE3=初氷
TTITLE4=あの日の蜃気楼
TTITLE5=Angel Snow
TTITLE6=Hand to Hand
TTITLE7=いちごのお料理ばんざい ステージ3
TTITLE8=いちごのお料理ばんざい ステージ4
TTITLE9=いちごのお料理ばんざい ステージ5
TTITLE10=いちごのお料理ばんざい ステージ6
TTITLE11=Bluelight Magic
TTITLE12=ほんとうのこころ
TTITLE13=僕と、僕らの夏(Full ver.)
TTITLE14=White Angel(Full ver.)
TTITLE15=夜を越えて
TTITLE16=Hand to Hand(Full ver.)
EXTD=
EXTT0=
EXTT1=
EXTT2=
EXTT3=
EXTT4=
EXTT5=
EXTT6=
EXTT7=
EXTT8=
EXTT9=
EXTT10=
EXTT11=
EXTT12=
EXTT13=
EXTT14=
EXTT15=
EXTT16=
PLAYORDER=
